<svg xmlns="http://www.w3.org/2000/svg" viewBox="0 0 512 512">
  <defs>
    <linearGradient id="grad1" x1="0%" y1="0%" x2="100%" y2="100%">
      <stop offset="0%" style="stop-color:#58a6ff;stop-opacity:1" />
      <stop offset="100%" style="stop-color:#1f6feb;stop-opacity:1" />
    </linearGradient>
  </defs>

  <!-- Background circle -->
  <circle cx="256" cy="256" r="240" fill="url(#grad1)"/>

  <!-- DLNA icon simplified -->
  <g fill="#ffffff">
    <!-- Left wave -->
    <path d="M 120 256 Q 120 180, 180 180 L 180 160 Q 100 160, 100 256 Q 100 352, 180 352 L 180 332 Q 120 332, 120 256 Z"/>

    <!-- Center circle -->
    <circle cx="256" cy="256" r="40"/>

    <!-- Right wave -->
    <path d="M 392 256 Q 392 332, 332 332 L 332 352 Q 412 352, 412 256 Q 412 160, 332 160 L 332 180 Q 392 180, 392 256 Z"/>

    <!-- Top small circle -->
    <circle cx="256" cy="150" r="20"/>

    <!-- Bottom small circle -->
    <circle cx="256" cy="362" r="20"/>
  </g>
</svg>
